<svg width="50" height="50" viewBox="0 0 50 50" fill="none" xmlns="http://www.w3.org/2000/svg">
<path d="M19.9939 25C19.9939 27.7544 22.2417 30.0021 24.996 30.0021C27.7503 30.0021 29.998 27.7544 29.998 25C29.998 22.2456 27.7503 19.9979 24.996 19.9979C22.2417 19.9979 19.9939 22.2456 19.9939 25Z" fill="black"/>
<path fill-rule="evenodd" clip-rule="evenodd" d="M35.5629 35.5671C36.092 35.0418 36.4222 34.5314 36.6962 33.8485C37.3706 32.1509 37.3346 28.4467 37.3113 26.0513C37.3075 25.6614 37.3041 25.3062 37.3041 25C37.3041 24.6928 37.3075 24.3364 37.3113 23.945C37.3347 21.5487 37.3708 17.8445 36.6999 16.1478C36.426 15.4648 36.0958 14.9582 35.5667 14.4291C35.0413 13.9 34.531 13.5698 33.848 13.2958C32.1514 12.6249 28.4472 12.661 26.051 12.6844C25.6596 12.6882 25.3031 12.6917 24.996 12.6917C24.6888 12.6917 24.3323 12.6882 23.941 12.6844C21.5447 12.661 17.8406 12.6249 16.1439 13.2958C15.461 13.5698 14.9544 13.9038 14.4253 14.4291C13.8962 14.9545 13.566 15.4648 13.292 16.1478C12.6211 17.8445 12.6572 21.5487 12.6806 23.945C12.6844 24.3364 12.6879 24.6928 12.6879 25C12.6879 25.3072 12.6844 25.6636 12.6806 26.055C12.6572 28.4505 12.6211 32.1523 13.292 33.8522C13.566 34.5352 13.8962 35.0418 14.4253 35.5709C14.9506 36.1 15.461 36.4302 16.1439 36.7042C17.8406 37.3751 21.5447 37.339 23.941 37.3156C24.3323 37.3118 24.6888 37.3083 24.996 37.3083C25.3022 37.3083 25.6574 37.3118 26.0472 37.3156C28.4426 37.3389 32.1468 37.3749 33.8443 36.7004C34.5272 36.4265 35.0338 36.0962 35.5629 35.5671ZM17.2997 25C17.2997 20.7409 20.7369 17.3035 24.996 17.3035C29.255 17.3035 32.6923 20.7409 32.6923 25C32.6923 29.2591 29.255 32.6964 24.996 32.6964C20.7369 32.6964 17.2997 29.2591 17.2997 25ZM31.2101 16.9921C31.2101 15.9977 32.0131 15.1946 33.0075 15.1946C33.2436 15.1943 33.4775 15.2406 33.6957 15.3308C33.9139 15.4211 34.1122 15.5535 34.2791 15.7204C34.4461 15.8874 34.5785 16.0857 34.6687 16.3039C34.7589 16.5221 34.8052 16.756 34.8049 16.9921C34.8049 17.9903 34.0019 18.7896 33.0075 18.7896C32.0131 18.7896 31.2101 17.9865 31.2101 16.9921Z" fill="black"/>
<path fill-rule="evenodd" clip-rule="evenodd" d="M25 50C38.8071 50 50 38.8071 50 25C50 11.1929 38.8071 0 25 0C11.1929 0 0 11.1929 0 25C0 38.8071 11.1929 50 25 50ZM39.9989 24.2421C39.9986 24.4945 39.9983 24.7471 39.9983 25C39.9983 25.2827 39.9987 25.5651 39.9992 25.8472C40.0018 27.632 40.0044 29.4062 39.9008 31.1917C39.7844 33.5933 39.2403 35.721 37.4804 37.4809C35.7243 39.2371 33.5929 39.785 31.1913 39.9013C29.376 40.0034 27.5722 40.0015 25.7572 39.9994C25.505 39.9992 25.2525 39.9989 24.9997 39.9989C24.7475 39.9989 24.4954 39.9992 24.2436 39.9994C22.431 40.0015 20.6268 40.0035 18.8082 39.9013C16.4066 39.785 14.2789 39.2409 12.519 37.4809C10.7629 35.7247 10.215 33.5933 10.0987 31.1917C9.99654 29.3763 9.99855 27.5696 10.0006 25.7563C10.0008 25.5044 10.0011 25.2523 10.0011 25C10.0011 24.7477 10.0008 24.4956 10.0006 24.2437C9.99855 22.4311 9.99654 20.627 10.0987 18.8083C10.215 16.4067 10.7591 14.279 12.519 12.5191C14.2752 10.7629 16.4066 10.215 18.8082 10.0987C20.6234 9.99655 22.4271 9.99855 24.242 10.0006C24.4944 10.0008 24.7469 10.0011 24.9997 10.0011C25.252 10.0011 25.5041 10.0008 25.756 10.0006C27.5686 9.99855 29.3727 9.99655 31.1913 10.0987C33.5929 10.215 35.7205 10.7591 37.4804 12.5191C39.2366 14.2753 39.7844 16.4067 39.9008 18.8083C40.0029 20.6235 40.0009 22.4272 39.9989 24.2421Z" fill="black"/>
</svg>
