<svg width="383" height="212" viewBox="0 0 383 212" fill="none" xmlns="http://www.w3.org/2000/svg">
<path d="M21.4423 57.627H122.297V84.1406H88.4589V165H55.2802V84.1406H21.4423V57.627Z" fill="black"/>
<path d="M123.426 165V57.627H178.724C188.977 57.627 196.814 58.5059 202.234 60.2637C207.654 62.0215 212.024 65.293 215.345 70.0781C218.665 74.8145 220.325 80.6006 220.325 87.4365C220.325 93.3936 219.056 98.5449 216.517 102.891C213.977 107.188 210.486 110.679 206.043 113.364C203.211 115.073 199.329 116.489 194.397 117.612C198.352 118.931 201.233 120.249 203.04 121.567C204.261 122.446 206.018 124.326 208.313 127.207C210.657 130.088 212.22 132.31 213.001 133.872L229.041 165H191.541L173.816 132.188C171.57 127.939 169.568 125.181 167.81 123.911C165.418 122.251 162.708 121.421 159.681 121.421H156.751V165H123.426ZM156.751 101.133H170.74C172.254 101.133 175.184 100.645 179.529 99.668C181.726 99.2285 183.509 98.1055 184.876 96.2989C186.292 94.4922 187 92.417 187 90.0733C187 86.6065 185.901 83.9453 183.704 82.0899C181.507 80.2344 177.381 79.3067 171.326 79.3067H156.751V101.133Z" fill="black"/>
<path d="M208.146 57.627H244.987L266.667 93.8819L288.347 57.627H324.968L283.22 120.029V165H249.968V120.029L208.146 57.627Z" fill="black"/>
<path d="M332.094 117.756H338.346V145.052C338.346 149.8 337.809 153.57 336.734 156.363C335.66 159.156 333.716 161.434 330.901 163.195C328.108 164.936 324.435 165.806 319.88 165.806C315.454 165.806 311.834 165.043 309.02 163.518C306.205 161.992 304.196 159.79 302.993 156.911C301.79 154.011 301.188 150.058 301.188 145.052V117.756H307.44V145.02C307.44 149.123 307.816 152.152 308.568 154.107C309.342 156.041 310.652 157.534 312.5 158.587C314.369 159.64 316.646 160.166 319.332 160.166C323.93 160.166 327.206 159.124 329.161 157.04C331.116 154.956 332.094 150.949 332.094 145.02V117.756ZM346.551 165V117.756H352.803V165H346.551Z" fill="black"/>
</svg>
